<svg width="34" height="34" fill="none" xmlns="http://www.w3.org/2000/svg"><circle cx="17.001" cy="17" r="17" fill="#fff"/><g clip-path="url(#a)" fill="#000"><path d="M20.482 10H14.52A3.523 3.523 0 0 0 11 13.519v5.962A3.523 3.523 0 0 0 14.52 23h5.962A3.523 3.523 0 0 0 24 19.481V13.52A3.523 3.523 0 0 0 20.48 10Zm2.757 9.481a2.76 2.76 0 0 1-2.757 2.757H14.52a2.76 2.76 0 0 1-2.757-2.757V13.52a2.76 2.76 0 0 1 2.757-2.757h5.962a2.76 2.76 0 0 1 2.757 2.757v5.962Z"/><path d="M17.5 12.945a3.559 3.559 0 0 0-3.554 3.555 3.559 3.559 0 0 0 3.555 3.555 3.559 3.559 0 0 0 3.554-3.555 3.559 3.559 0 0 0-3.554-3.555Zm0 6.347a2.796 2.796 0 0 1-2.792-2.792 2.796 2.796 0 0 1 2.793-2.793 2.796 2.796 0 0 1 2.792 2.793 2.796 2.796 0 0 1-2.792 2.792ZM21.14 11.683a1.052 1.052 0 0 0 0 2.1 1.052 1.052 0 0 0 0-2.1Zm0 1.339a.289.289 0 1 1 .001-.578.289.289 0 0 1 0 .578Z"/></g><defs><clipPath id="a"><path fill="#fff" transform="translate(11 10)" d="M0 0h13v13H0z"/></clipPath></defs></svg>