<svg width="34" height="34" fill="none" xmlns="http://www.w3.org/2000/svg"><circle cx="17.001" cy="17" r="17" fill="#fff"/><g clip-path="url(#a)" fill="#000"><path d="M21.998 22h.003v-4.035c0-1.973-.425-3.494-2.732-3.494-1.11 0-1.854.61-2.158 1.186h-.032v-1.001h-2.187V22h2.277v-3.637c0-.957.182-1.883 1.368-1.883 1.168 0 1.185 1.093 1.185 1.945V22h2.276ZM11.182 14.656h2.28V22h-2.28v-7.344ZM12.322 11c-.73 0-1.321.592-1.321 1.32 0 .73.591 1.334 1.32 1.334.73 0 1.322-.604 1.322-1.333 0-.73-.593-1.321-1.321-1.321Z"/></g><defs><clipPath id="a"><path fill="#fff" transform="translate(11 11)" d="M0 0h11v11H0z"/></clipPath></defs></svg>