<svg width="34" height="34" fill="none" xmlns="http://www.w3.org/2000/svg"><circle cx="17.001" cy="17" r="17" fill="#fff"/><g clip-path="url(#a)"><path d="M23 13.47a5.56 5.56 0 0 1-1.535.42 2.65 2.65 0 0 0 1.172-1.473 5.324 5.324 0 0 1-1.69.645 2.664 2.664 0 0 0-4.61 1.823c0 .21.018.414.062.607a7.544 7.544 0 0 1-5.493-2.787 2.669 2.669 0 0 0 .819 3.562 2.632 2.632 0 0 1-1.204-.329v.03c0 1.295.923 2.37 2.135 2.618-.217.06-.453.088-.699.088-.17 0-.343-.01-.504-.045a2.69 2.69 0 0 0 2.49 1.856 5.355 5.355 0 0 1-3.304 1.137c-.219 0-.429-.01-.638-.037a7.502 7.502 0 0 0 4.088 1.196c4.905 0 7.586-4.062 7.586-7.584 0-.117-.004-.231-.01-.344a5.316 5.316 0 0 0 1.336-1.384Z" fill="#000"/></g><defs><clipPath id="a"><path fill="#fff" transform="translate(10 11)" d="M0 0h13v13H0z"/></clipPath></defs></svg>